<svg xmlns="http://www.w3.org/2000/svg" width="480pt" height="290pt" viewBox="0 0 480 290" version="1.1" xmlns:xlink="http://www.w3.org/1999/xlink">
  <g id="surface2" transform="matrix(1,0,0,1,-2.3079833984375,-4.116973876953125)" data-tpl_matrix="1,0,0,1,-0.5,-0.5">
    <path style="stroke:none;fill-rule:evenodd;fill:rgb(18.039216%,21.176471%,56.078431%);fill-opacity:1" d="M 240.449219 20.148438 L 306.25 64.648438 L 296.148438 150.800781 C 293.285156 150.398438 290.351562 150.015625 287.351562 149.648438 C 289.183594 147.117188 290.464844 143.535156 291.199219 138.898438 C 291.933594 134.265625 290.785156 128.75 287.75 122.351562 C 286.148438 117.117188 286.015625 114.5 287.351562 114.5 C 288.351562 113.667969 289.25 113.316406 290.050781 113.449219 C 291.351562 113.949219 292.199219 114.601562 292.601562 115.398438 C 293.398438 116.535156 294.449219 116.800781 295.75 116.199219 C 296.882812 115.398438 297.148438 114.351562 296.550781 113.050781 C 296.316406 111.785156 294.417969 110.398438 290.851562 108.898438 C 289.25 108.367188 287.082031 109.050781 284.351562 110.949219 C 283.949219 111.015625 283.234375 112.148438 282.199219 114.351562 C 281.199219 116.550781 281.683594 119.898438 283.648438 124.398438 C 286.351562 130.234375 287.316406 135.132812 286.550781 139.101562 C 285.785156 143.066406 284.617188 145.984375 283.050781 147.851562 C 282.015625 142.449219 278.964844 137.234375 273.898438 132.199219 C 274.101562 131.734375 273.949219 129.167969 273.449219 124.5 C 272.984375 119.800781 271.015625 115.832031 267.550781 112.601562 C 267.917969 112.632812 269.367188 110.964844 271.898438 107.601562 C 274.398438 104.199219 275.699219 98.867188 275.800781 91.601562 C 275.964844 91.535156 276.535156 90.601562 277.5 88.800781 C 278.433594 87 278.699219 84.714844 278.300781 81.949219 C 277.367188 81.382812 274.617188 83.117188 270.050781 87.148438 C 270.25 86.683594 268.449219 86.117188 264.648438 85.449219 C 264.75 85.25 264.382812 84.117188 263.550781 82.050781 C 262.714844 79.984375 260.898438 78.214844 258.101562 76.75 C 258.167969 76.917969 258.316406 78.050781 258.550781 80.148438 C 258.75 82.285156 258.601562 84.433594 258.101562 86.601562 C 257.867188 86.433594 256.917969 86.667969 255.25 87.300781 C 253.617188 87.964844 252.765625 90.035156 252.699219 93.5 C 252.167969 93.464844 250.917969 94.417969 248.949219 96.351562 C 247.015625 98.285156 247.699219 101.582031 251 106.25 C 250.667969 106.214844 249.183594 107.265625 246.550781 109.398438 C 243.917969 111.5 242.050781 114.800781 240.949219 119.300781 C 240.917969 119.5 241.066406 119.832031 241.398438 120.300781 C 241.765625 120.765625 242.648438 120.316406 244.050781 118.949219 C 243.785156 119.484375 243.316406 121.351562 242.648438 124.550781 C 241.984375 127.75 242.765625 128.964844 245 128.199219 C 244.832031 128.265625 244.964844 129.851562 245.398438 132.949219 C 245.800781 136.050781 247.464844 140.234375 250.398438 145.5 C 250.433594 145.535156 250.582031 146.066406 250.851562 147.101562 C 247.917969 147.035156 244.949219 146.984375 241.949219 146.949219 C 245.082031 139.082031 244.5 133.433594 240.199219 130 C 235.898438 126.601562 233.300781 124.933594 232.398438 125 C 237.464844 115.234375 238.933594 107.433594 236.800781 101.601562 C 234.632812 95.765625 233.199219 92.765625 232.5 92.601562 C 236.265625 91.300781 238.101562 90.050781 238 88.851562 C 241.234375 89.285156 243.300781 87.316406 244.199219 82.949219 C 245.101562 78.617188 245.5 76.101562 245.398438 75.398438 C 242 74.964844 239.714844 74.535156 238.550781 74.101562 C 237.582031 72.867188 237.148438 71.199219 237.25 69.101562 C 237.351562 66.964844 237.449219 65.800781 237.550781 65.601562 C 238.882812 62.167969 238.816406 59.800781 237.351562 58.5 C 235.882812 57.199219 234.984375 56.582031 234.648438 56.648438 C 232.550781 56.082031 231.117188 56.484375 230.351562 57.851562 C 229.582031 59.183594 229.234375 59.964844 229.300781 60.199219 C 227.332031 59.265625 225.316406 58.800781 223.25 58.800781 C 221.183594 58.765625 220.066406 58.785156 219.898438 58.851562 C 219.332031 56.484375 218.265625 55.117188 216.699219 54.75 C 215.132812 54.382812 214.265625 54.265625 214.101562 54.398438 C 211.5 54.566406 209.851562 55.316406 209.148438 56.648438 C 208.449219 57.949219 208.148438 58.683594 208.25 58.851562 C 207.582031 61.351562 206.683594 64 205.550781 66.800781 C 204.449219 69.632812 203.832031 71.167969 203.699219 71.398438 C 202.933594 74.867188 203.964844 76 206.800781 74.800781 C 209.667969 73.566406 211.351562 72.734375 211.851562 72.300781 C 211.214844 75.535156 211.316406 78.667969 212.148438 81.699219 C 212.949219 84.765625 213.433594 86.398438 213.601562 86.601562 C 214.398438 91.734375 213.933594 96.316406 212.199219 100.351562 C 210.5 104.351562 209.484375 106.449219 209.148438 106.648438 C 198.550781 119.949219 193.082031 130.964844 192.75 139.699219 C 192.75 139.699219 192.75 139.683594 192.75 139.648438 C 192.515625 139.015625 192.300781 138.367188 192.101562 137.699219 C 191.964844 137.332031 191.851562 136.984375 191.75 136.648438 C 191.648438 136.316406 191.566406 135.964844 191.5 135.601562 C 191.332031 134.867188 191.167969 134.132812 191 133.398438 C 190.832031 132.667969 190.699219 131.917969 190.601562 131.148438 C 190.464844 130.417969 190.367188 129.667969 190.300781 128.898438 C 190.234375 128.101562 190.183594 127.316406 190.148438 126.550781 C 190.082031 125.785156 190.050781 125.015625 190.050781 124.25 C 190.050781 123.484375 190.066406 122.714844 190.101562 121.949219 C 190.101562 121.183594 190.132812 120.433594 190.199219 119.699219 C 190.332031 118.234375 190.484375 116.816406 190.648438 115.449219 C 190.851562 114.117188 191.066406 112.851562 191.300781 111.648438 C 191.433594 111.082031 191.550781 110.535156 191.648438 110 C 191.785156 109.464844 191.917969 108.964844 192.050781 108.5 C 192.285156 107.535156 192.5 106.714844 192.699219 106.050781 C 193.066406 104.648438 193.265625 103.933594 193.300781 103.898438 L 193.300781 103.851562 C 193.398438 103.316406 193.214844 102.933594 192.75 102.699219 C 192.183594 102.535156 191.765625 102.699219 191.5 103.199219 C 191.464844 103.234375 191.183594 103.933594 190.648438 105.300781 C 190.351562 105.964844 190.015625 106.765625 189.648438 107.699219 C 189.449219 108.167969 189.25 108.667969 189.050781 109.199219 C 188.882812 109.765625 188.699219 110.332031 188.5 110.898438 C 188.101562 112.101562 187.699219 113.382812 187.300781 114.75 C 186.964844 116.183594 186.617188 117.667969 186.25 119.199219 C 186.082031 119.964844 185.949219 120.75 185.851562 121.550781 C 185.75 122.351562 185.632812 123.167969 185.5 124 C 185.398438 124.832031 185.332031 125.667969 185.300781 126.5 C 185.234375 127.367188 185.183594 128.214844 185.148438 129.050781 C 185.148438 129.917969 185.167969 130.785156 185.199219 131.648438 C 185.199219 132.484375 185.234375 133.332031 185.300781 134.199219 C 185.367188 135.035156 185.449219 135.867188 185.550781 136.699219 C 185.582031 137.132812 185.632812 137.550781 185.699219 137.949219 C 185.765625 138.351562 185.832031 138.75 185.898438 139.148438 C 186.066406 139.949219 186.234375 140.734375 186.398438 141.5 C 186.601562 142.300781 186.800781 143.050781 187 143.75 C 187.167969 144.484375 187.382812 145.183594 187.648438 145.851562 C 187.851562 146.550781 188.082031 147.214844 188.351562 147.851562 C 188.683594 148.683594 189.015625 149.449219 189.351562 150.148438 C 187.816406 150.382812 186.300781 150.601562 184.800781 150.800781 L 174.699219 64.648438 L 240.449219 20.148438 M 310.449219 153.351562 C 312.882812 150.582031 315.648438 148.433594 318.75 146.898438 C 321.851562 145.367188 323.550781 144.582031 323.851562 144.550781 C 319.050781 145.015625 315.199219 145.964844 312.300781 147.398438 C 309.398438 148.800781 307.898438 149.601562 307.800781 149.800781 C 309.867188 145.535156 312.214844 142.433594 314.851562 140.5 C 317.449219 138.566406 318.882812 137.617188 319.148438 137.648438 C 313.117188 138.984375 308.667969 141.167969 305.800781 144.199219 L 314.449219 70.199219 L 327.25 78.851562 L 332.199219 71.550781 L 240.449219 9.5 L 148.75 71.550781 L 153.699219 78.851562 L 166.449219 70.199219 L 175.148438 144.199219 C 172.25 141.167969 167.800781 138.984375 161.800781 137.648438 C 162.035156 137.617188 163.464844 138.566406 166.101562 140.5 C 168.699219 142.433594 171.050781 145.535156 173.148438 149.800781 C 173.050781 149.601562 171.550781 148.800781 168.648438 147.398438 C 165.75 145.964844 161.898438 145.015625 157.101562 144.550781 C 157.398438 144.582031 159.101562 145.367188 162.199219 146.898438 C 165.300781 148.433594 168.066406 150.582031 170.5 153.351562 C 152.300781 157.183594 139.867188 162.082031 133.199219 168.050781 C 144.601562 163.917969 159.601562 160.632812 178.199219 158.199219 C 196.832031 155.765625 217.582031 154.515625 240.449219 154.449219 C 263.351562 154.515625 284.117188 155.765625 302.75 158.199219 C 321.351562 160.632812 336.351562 163.917969 347.75 168.050781 C 341.050781 162.082031 328.617188 157.183594 310.449219 153.351562 "/>
    <path style="stroke:none;fill-rule:evenodd;fill:rgb(100.000000%,100.000000%,100.000000%);fill-opacity:1" d="M 250.898438 126.398438 C 250.433594 126.101562 249.214844 124.417969 247.25 121.351562 C 245.285156 118.285156 245.382812 115.734375 247.550781 113.699219 C 248.082031 112.632812 249.515625 113.117188 251.851562 115.148438 C 251.882812 114.984375 252.351562 114.617188 253.25 114.050781 C 254.117188 113.484375 255.132812 113.683594 256.300781 114.648438 C 256.5 114.683594 256.765625 115.183594 257.101562 116.148438 C 257.464844 117.117188 256.714844 118.214844 254.851562 119.449219 C 254.648438 119.484375 253.898438 120.117188 252.601562 121.351562 C 251.300781 122.582031 250.734375 124.265625 250.898438 126.398438 "/>
    <path style="stroke:none;fill-rule:evenodd;fill:rgb(100.000000%,100.000000%,100.000000%);fill-opacity:1" d="M 229.699219 114.148438 C 230.167969 113.851562 231.382812 112.167969 233.351562 109.101562 C 235.285156 106.035156 235.183594 103.484375 233.050781 101.449219 C 232.515625 100.382812 231.082031 100.867188 228.75 102.898438 C 228.683594 102.734375 228.214844 102.367188 227.351562 101.800781 C 226.484375 101.234375 225.464844 101.433594 224.300781 102.398438 C 224.101562 102.433594 223.832031 102.933594 223.5 103.898438 C 223.132812 104.867188 223.882812 105.964844 225.75 107.199219 C 225.949219 107.234375 226.699219 107.867188 228 109.101562 C 229.265625 110.332031 229.832031 112.015625 229.699219 114.148438 "/>
  </g>
  <g id="surface4">
    <text style="fill:rgb(226,129,175)" font-family="Helvetica" font-size="39" transform="matrix(1,0,0,1,1.103973388671875,213.41500854492188)" xml:space="preserve"><![CDATA[ScruffyPups n' GrumpyCats]]></text>
    <text style="fill:rgb(193,217,91)" font-family="Helvetica" font-size="34" transform="matrix(1,0,0,1,145.05701293945313,271.02099609375)" xml:space="preserve"><![CDATA[Pet Services]]></text>
  </g>
</svg>